<svg version="1.1" id="Layer_1" xmlns="http://www.w3.org/2000/svg" xmlns:xlink="http://www.w3.org/1999/xlink" x="0px" y="0px"
	 width="100%" viewBox="0 0 727 707" enable-background="new 0 0 727 707" xml:space="preserve">
<path fill="#000000" opacity="1.000000" stroke="none" 
	d="
M1.000000,262.000000 
	C1.000000,174.666672 1.000000,87.833336 1.000000,1.000000 
	C243.333328,1.000000 485.666656,1.000000 728.000000,1.000000 
	C728.000000,236.666672 728.000000,472.333344 728.000000,708.000000 
	C485.666656,708.000000 243.333328,708.000000 1.000000,708.000000 
	C1.000000,559.500000 1.000000,411.000000 1.000000,262.000000 
M26.947882,354.500000 
	C27.291780,411.711945 38.191158,466.654480 62.841793,518.505127 
	C96.997604,590.349182 149.294495,643.997681 223.142258,674.983521 
	C290.752716,703.352356 360.572388,706.624512 431.239868,688.825867 
	C510.311798,668.910461 574.488037,625.747192 623.711182,560.804077 
	C661.978027,510.316254 684.383606,453.329987 691.261230,390.285309 
	C696.312988,343.977478 692.386230,298.436493 678.857666,253.895203 
	C656.872681,181.511978 615.600952,122.309631 555.363647,76.579056 
	C505.044189,38.377819 448.313477,15.836040 385.487854,8.699572 
	C336.074799,3.086658 287.619415,7.461228 240.703278,24.078114 
	C159.629791,52.792946 101.739845,107.584961 64.261757,184.315750 
	C38.233181,237.605377 26.954102,294.362823 26.947882,354.500000 
z"/>
<path fill="#EF3B16" opacity="1.000000" stroke="none" 
	d="
M26.947083,354.000000 
	C26.954102,294.362823 38.233181,237.605377 64.261757,184.315750 
	C101.739845,107.584961 159.629791,52.792946 240.703278,24.078114 
	C287.619415,7.461228 336.074799,3.086658 385.487854,8.699572 
	C448.313477,15.836040 505.044189,38.377819 555.363647,76.579056 
	C615.600952,122.309631 656.872681,181.511978 678.857666,253.895203 
	C692.386230,298.436493 696.312988,343.977478 691.261230,390.285309 
	C684.383606,453.329987 661.978027,510.316254 623.711182,560.804077 
	C574.488037,625.747192 510.311798,668.910461 431.239868,688.825867 
	C360.572388,706.624512 290.752716,703.352356 223.142258,674.983521 
	C149.294495,643.997681 96.997604,590.349182 62.841793,518.505127 
	C38.191158,466.654480 27.291780,411.711945 26.947083,354.000000 
M39.754509,439.674408 
	C49.344868,483.910767 66.315239,525.046143 91.808731,562.516968 
	C126.894897,614.087402 173.127457,652.048523 231.375656,674.657288 
	C293.937988,698.940552 358.202850,702.050598 423.324066,687.233215 
	C487.764191,672.570740 543.970764,642.034119 589.801880,594.438599 
	C675.995239,504.926788 706.551819,398.436707 681.106384,276.891357 
	C667.531433,212.048340 635.991577,155.936050 588.299744,109.936768 
	C502.719604,27.393930 400.610077,-4.715550 283.435913,16.385315 
	C208.395630,29.898659 147.796539,68.996086 101.673073,129.707840 
	C57.416683,187.961975 35.975582,254.699615 31.180229,327.108643 
	C28.691370,364.690033 31.410479,402.008575 39.754509,439.674408 
z"/>
<path fill="#010100" opacity="1.000000" stroke="none" 
	d="
M39.635384,439.268433 
	C31.410479,402.008575 28.691370,364.690033 31.180229,327.108643 
	C35.975582,254.699615 57.416683,187.961975 101.673073,129.707840 
	C147.796539,68.996086 208.395630,29.898659 283.435913,16.385315 
	C400.610077,-4.715550 502.719604,27.393930 588.299744,109.936768 
	C635.991577,155.936050 667.531433,212.048340 681.106384,276.891357 
	C706.551819,398.436707 675.995239,504.926788 589.801880,594.438599 
	C543.970764,642.034119 487.764191,672.570740 423.324066,687.233215 
	C358.202850,702.050598 293.937988,698.940552 231.375656,674.657288 
	C173.127457,652.048523 126.894897,614.087402 91.808731,562.516968 
	C66.315239,525.046143 49.344868,483.910767 39.635384,439.268433 
M623.868896,345.392517 
	C623.450928,343.809814 623.032959,342.227112 622.500610,340.211243 
	C618.940247,340.524658 618.000061,344.444885 621.388306,352.145660 
	C621.862549,350.725372 621.724487,349.185760 622.124329,347.801575 
	C622.341492,347.050110 623.473877,346.563080 624.658203,346.606232 
	C624.551819,347.245392 624.124146,348.152985 624.394897,348.476959 
	C625.537109,349.843689 626.731506,351.751099 628.209595,352.073761 
	C629.462219,352.347198 631.853943,351.046692 632.410889,349.832336 
	C632.961853,348.631195 632.347839,345.873322 631.336548,345.233032 
	C630.029968,344.405823 627.814453,344.903900 626.005615,345.037811 
	C625.334229,345.087524 624.706116,345.721161 623.868896,345.392517 
M601.542419,349.244965 
	C605.859131,353.214905 607.108276,353.367401 609.564697,350.127808 
	C608.109375,350.127808 606.726379,350.127808 605.343384,350.127808 
	C605.332825,349.863434 605.322205,349.599060 605.311584,349.334686 
	C607.038269,349.144379 608.764893,348.954041 610.544128,348.757935 
	C608.649292,343.394684 606.766418,342.783813 603.016785,346.004211 
	C602.564026,346.393066 601.621948,346.212097 600.601990,345.569031 
	C598.138733,345.105286 595.675415,344.641510 593.635010,344.257355 
	C593.635010,348.666443 593.635010,352.304413 593.635010,355.942352 
	C593.968994,355.925323 594.303040,355.908264 594.637024,355.891235 
	C594.852417,354.690460 595.067749,353.489716 595.065735,353.501038 
	C597.512878,352.020477 599.242126,350.974243 601.542419,349.244965 
M154.822220,114.334999 
	C106.057228,145.193985 73.471519,188.887680 54.008820,242.648346 
	C36.230309,291.756866 31.591745,342.420624 37.778877,394.186035 
	C43.150646,439.129517 56.895855,481.160614 81.728569,519.193054 
	C109.189407,561.250610 145.803543,592.341614 193.066589,610.254822 
	C234.332886,625.895081 276.902313,629.345520 320.353302,623.076660 
	C378.878540,614.632996 429.597412,589.753540 471.746307,548.434753 
	C523.168030,498.025757 550.850281,436.538239 554.230042,364.424744 
	C556.501770,315.954285 546.852539,269.782501 523.684753,227.240570 
	C477.776978,142.942459 406.967957,93.673088 311.410858,81.851730 
	C256.097412,75.008911 203.655167,84.905540 154.822220,114.334999 
M640.709900,348.606171 
	C640.857056,349.777161 641.004211,350.948181 641.151306,352.119202 
	C641.466064,352.128998 641.780762,352.138794 642.095520,352.148621 
	C642.641663,350.072113 643.187866,347.995636 643.734070,345.919159 
	C644.186829,345.960144 644.639648,346.001129 645.092468,346.042145 
	C645.523193,348.076019 645.953979,350.109894 646.384766,352.143768 
	C646.652405,352.153534 646.920044,352.163300 647.187744,352.173065 
	C647.701660,350.088379 648.215576,348.003693 648.729492,345.919006 
	C649.186584,345.938049 649.643677,345.957123 650.100769,345.976166 
	C650.575562,348.057648 651.050354,350.139099 651.742493,353.173523 
	C654.582520,344.429352 652.244934,342.966644 640.709412,344.946075 
	C640.709412,345.912781 640.709412,346.886841 640.709900,348.606171 
z"/>
<path fill="#EEB52D" opacity="1.000000" stroke="none" 
	d="
M155.136322,114.153641 
	C203.655167,84.905540 256.097412,75.008911 311.410858,81.851730 
	C406.967957,93.673088 477.776978,142.942459 523.684753,227.240570 
	C546.852539,269.782501 556.501770,315.954285 554.230042,364.424744 
	C550.850281,436.538239 523.168030,498.025757 471.746307,548.434753 
	C429.597412,589.753540 378.878540,614.632996 320.353302,623.076660 
	C276.902313,629.345520 234.332886,625.895081 193.066589,610.254822 
	C145.803543,592.341614 109.189407,561.250610 81.728569,519.193054 
	C56.895855,481.160614 43.150646,439.129517 37.778877,394.186035 
	C31.591745,342.420624 36.230309,291.756866 54.008820,242.648346 
	C73.471519,188.887680 106.057228,145.193985 155.136322,114.153641 
M101.226494,165.771027 
	C91.442520,180.610931 80.478439,194.817062 72.102402,210.413116 
	C49.639309,252.239029 39.885307,297.524933 38.833931,344.790619 
	C37.655258,397.779236 47.411011,448.426758 71.989510,495.739777 
	C92.395340,535.020569 120.799812,567.138245 158.989212,589.916321 
	C211.745453,621.382874 268.887848,628.443665 328.575562,618.294800 
	C375.322083,610.346313 417.544830,591.389587 453.301086,560.252258 
	C535.385132,488.771667 566.860901,398.757782 543.797241,292.384460 
	C526.263855,211.517883 477.856842,151.956955 404.777740,113.407921 
	C351.678925,85.398415 294.801697,77.065804 235.671524,87.381500 
	C181.630127,96.809418 137.027939,123.232628 101.226494,165.771027 
z"/>
<path fill="#E0E0E0" opacity="1.000000" stroke="none" 
	d="
M640.709656,348.233551 
	C640.709412,346.886841 640.709412,345.912781 640.709412,344.946075 
	C652.244934,342.966644 654.582520,344.429352 651.742493,353.173523 
	C651.050354,350.139099 650.575562,348.057648 650.100769,345.976166 
	C649.643677,345.957123 649.186584,345.938049 648.729492,345.919006 
	C648.215576,348.003693 647.701660,350.088379 647.187744,352.173065 
	C646.920044,352.163300 646.652405,352.153534 646.384766,352.143768 
	C645.953979,350.109894 645.523193,348.076019 645.092468,346.042145 
	C644.639648,346.001129 644.186829,345.960144 643.734070,345.919159 
	C643.187866,347.995636 642.641663,350.072113 642.095520,352.148621 
	C641.780762,352.138794 641.466064,352.128998 641.151306,352.119202 
	C641.004211,350.948181 640.857056,349.777161 640.709656,348.233551 
z"/>
<path fill="#E4E4E4" opacity="1.000000" stroke="none" 
	d="
M600.971313,349.928040 
	C599.242126,350.974243 597.512878,352.020477 595.065735,353.501038 
	C595.067749,353.489716 594.852417,354.690460 594.637024,355.891235 
	C594.303040,355.908264 593.968994,355.925323 593.635010,355.942352 
	C593.635010,352.304413 593.635010,348.666443 593.635010,344.257355 
	C595.675415,344.641510 598.138733,345.105286 600.734863,346.295380 
	C600.902283,347.990479 600.936768,348.959259 600.971313,349.928040 
z"/>
<path fill="#D7D7D7" opacity="1.000000" stroke="none" 
	d="
M624.058228,346.088501 
	C624.706116,345.721161 625.334229,345.087524 626.005615,345.037811 
	C627.814453,344.903900 630.029968,344.405823 631.336548,345.233032 
	C632.347839,345.873322 632.961853,348.631195 632.410889,349.832336 
	C631.853943,351.046692 629.462219,352.347198 628.209595,352.073761 
	C626.731506,351.751099 625.537109,349.843689 624.394897,348.476959 
	C624.124146,348.152985 624.551819,347.245392 624.398682,346.321228 
	C624.139099,346.036224 624.058228,346.088470 624.058228,346.088501 
z"/>
<path fill="#CFCFCF" opacity="1.000000" stroke="none" 
	d="
M601.256836,349.586487 
	C600.936768,348.959259 600.902283,347.990479 600.887207,346.658478 
	C601.621948,346.212097 602.564026,346.393066 603.016785,346.004211 
	C606.766418,342.783813 608.649292,343.394684 610.544128,348.757935 
	C608.764893,348.954041 607.038269,349.144379 605.311584,349.334686 
	C605.322205,349.599060 605.332825,349.863434 605.343384,350.127808 
	C606.726379,350.127808 608.109375,350.127808 609.564697,350.127808 
	C607.108276,353.367401 605.859131,353.214905 601.256836,349.586487 
z"/>
<path fill="#EAEAEA" opacity="1.000000" stroke="none" 
	d="
M624.166260,345.996490 
	C623.473877,346.563080 622.341492,347.050110 622.124329,347.801575 
	C621.724487,349.185760 621.862549,350.725372 621.388306,352.145660 
	C618.000061,344.444885 618.940247,340.524658 622.500610,340.211243 
	C623.032959,342.227112 623.450928,343.809814 623.963562,345.740479 
	C624.058228,346.088470 624.139099,346.036224 624.166260,345.996490 
z"/>
<path fill="#010101" opacity="1.000000" stroke="none" 
	d="
M101.461517,165.503036 
	C137.027939,123.232628 181.630127,96.809418 235.671524,87.381500 
	C294.801697,77.065804 351.678925,85.398415 404.777740,113.407921 
	C477.856842,151.956955 526.263855,211.517883 543.797241,292.384460 
	C566.860901,398.757782 535.385132,488.771667 453.301086,560.252258 
	C417.544830,591.389587 375.322083,610.346313 328.575562,618.294800 
	C268.887848,628.443665 211.745453,621.382874 158.989212,589.916321 
	C120.799812,567.138245 92.395340,535.020569 71.989510,495.739777 
	C47.411011,448.426758 37.655258,397.779236 38.833931,344.790619 
	C39.885307,297.524933 49.639309,252.239029 72.102402,210.413116 
	C80.478439,194.817062 91.442520,180.610931 101.461517,165.503036 
M489.434723,347.711945 
	C489.035645,347.553040 488.425964,347.507660 488.269775,347.217834 
	C486.518463,343.968414 483.907166,342.705994 481.118164,345.374176 
	C480.105042,346.343414 479.968811,349.865387 480.901459,350.905823 
	C483.126801,353.388306 485.865479,352.914673 487.992737,350.046021 
	C488.270142,349.671936 489.348083,349.891479 490.118591,350.540405 
	C492.625916,351.218872 495.133270,351.897308 497.628174,352.572418 
	C497.628174,347.802094 497.628174,343.856781 497.628174,339.911438 
	C497.283539,339.874298 496.938934,339.837158 496.594299,339.799988 
	C496.259430,341.349457 495.924561,342.898895 495.589661,344.448334 
	C495.291779,344.112762 494.993927,343.777161 494.696045,343.441559 
	C493.127869,344.620392 491.559723,345.799225 489.434723,347.711945 
M92.103569,502.400604 
	C103.515305,516.051819 116.568840,527.862000 131.737930,537.205322 
	C172.811005,562.504150 217.554138,568.278625 264.062103,559.564636 
	C378.131042,538.192078 452.566315,431.526367 433.734924,317.668335 
	C417.579010,219.986633 331.566742,145.192459 232.953598,142.874878 
	C198.419693,142.063248 165.648666,148.449768 135.701141,166.212799 
	C96.153145,189.670273 71.459175,224.911224 56.940022,267.780640 
	C43.164803,308.453461 40.352665,350.246552 46.244656,392.584381 
	C51.851334,432.872070 65.687691,469.931183 92.103569,502.400604 
M473.704681,347.401703 
	C474.200897,346.627960 474.697083,345.854248 475.193298,345.080536 
	C475.103851,345.031830 475.014435,344.983093 474.925018,344.934387 
	C474.346558,346.047211 473.768097,347.160034 472.781403,349.058289 
	C471.244781,342.961609 467.613739,343.889557 464.184326,344.801361 
	C464.184326,348.696747 464.184326,352.304199 464.184326,355.911682 
	C464.486084,355.947662 464.787811,355.983673 465.089569,356.019684 
	C465.488037,354.752167 465.886505,353.484619 466.284943,352.217102 
	C468.629242,351.937897 470.298126,350.722626 472.071930,349.687073 
	C472.475983,349.451202 473.243347,349.834198 473.840912,349.946045 
	C473.865112,349.950531 473.862915,350.096161 473.873077,350.176056 
	C473.885010,350.109009 473.896973,350.041992 473.696655,351.165436 
	C473.696655,349.333252 473.696655,348.691620 473.704681,347.401703 
M522.685608,352.156067 
	C523.229553,351.725952 523.773560,351.295837 525.201660,350.166626 
	C522.731323,350.166626 521.391724,350.166626 520.052124,350.166626 
	C520.038086,349.915070 520.023987,349.663513 520.009888,349.411957 
	C521.671814,349.199738 523.333801,348.987518 524.995728,348.775269 
	C525.250061,348.278168 525.504395,347.781067 525.758728,347.283966 
	C524.009094,346.210968 522.294006,344.418030 520.497009,344.331726 
	C519.398438,344.278961 517.329529,346.766052 517.184448,348.257202 
	C516.896423,351.216705 518.976929,352.618164 522.685608,352.156067 
M512.697327,346.209686 
	C513.773926,346.104797 514.850525,345.999939 515.927124,345.895050 
	C515.864868,345.373627 515.802673,344.852234 515.740479,344.330811 
	C513.982971,344.639160 511.578674,344.370514 510.646576,345.415283 
	C509.680176,346.498535 509.353271,349.520905 510.172089,350.487091 
	C511.232056,351.737793 513.703613,351.792175 516.685791,352.703339 
	C515.052734,349.264160 509.393036,351.580658 512.697327,346.209686 
z"/>
<path fill="#0096B5" opacity="1.000000" stroke="none" 
	d="
M91.883148,502.123657 
	C65.687691,469.931183 51.851334,432.872070 46.244656,392.584381 
	C40.352665,350.246552 43.164803,308.453461 56.940022,267.780640 
	C71.459175,224.911224 96.153145,189.670273 135.701141,166.212799 
	C165.648666,148.449768 198.419693,142.063248 232.953598,142.874878 
	C331.566742,145.192459 417.579010,219.986633 433.734924,317.668335 
	C452.566315,431.526367 378.131042,538.192078 264.062103,559.564636 
	C217.554138,568.278625 172.811005,562.504150 131.737930,537.205322 
	C116.568840,527.862000 103.515305,516.051819 91.883148,502.123657 
M324.337036,534.903137 
	C410.064331,487.816711 451.077362,391.694702 425.646729,297.464172 
	C400.653534,204.854599 310.864319,140.583557 214.733002,146.656219 
	C150.504089,150.713577 103.461708,181.696854 73.273819,238.235779 
	C57.255733,268.236084 49.680283,300.678802 47.599110,334.480194 
	C44.827667,379.492493 51.174099,422.932526 71.259178,463.683228 
	C90.132980,501.976379 118.234406,531.353088 158.552658,546.814880 
	C215.127258,568.510864 270.266266,562.413086 324.337036,534.903137 
z"/>
<path fill="#D9D9D9" opacity="1.000000" stroke="none" 
	d="
M473.700684,347.725830 
	C473.696655,348.691620 473.696655,349.333252 473.696655,351.165436 
	C473.896973,350.041992 473.885010,350.109009 473.873047,350.176056 
	C473.862915,350.096161 473.865112,349.950531 473.840912,349.946045 
	C473.243347,349.834198 472.475983,349.451202 472.071930,349.687073 
	C470.298126,350.722626 468.629242,351.937897 466.284943,352.217102 
	C465.886505,353.484619 465.488037,354.752167 465.089569,356.019684 
	C464.787811,355.983673 464.486084,355.947662 464.184326,355.911682 
	C464.184326,352.304199 464.184326,348.696747 464.184326,344.801361 
	C467.613739,343.889557 471.244781,342.961609 472.781403,349.058289 
	C473.768097,347.160034 474.346558,346.047211 474.925018,344.934387 
	C475.014435,344.983093 475.103851,345.031830 475.193298,345.080536 
	C474.697083,345.854248 474.200897,346.627960 473.700684,347.725830 
z"/>
<path fill="#E2E2E2" opacity="1.000000" stroke="none" 
	d="
M489.991577,346.978088 
	C491.559723,345.799225 493.127869,344.620392 494.696045,343.441559 
	C494.993927,343.777161 495.291779,344.112762 495.589661,344.448334 
	C495.924561,342.898895 496.259430,341.349457 496.594299,339.799988 
	C496.938934,339.837158 497.283539,339.874298 497.628174,339.911438 
	C497.628174,343.856781 497.628174,347.802094 497.628174,352.572418 
	C495.133270,351.897308 492.625916,351.218872 490.100098,349.830811 
	C490.051636,348.406830 490.021606,347.692444 489.991577,346.978088 
z"/>
<path fill="#D8D8D8" opacity="1.000000" stroke="none" 
	d="
M489.713135,347.345032 
	C490.021606,347.692444 490.051636,348.406830 490.068420,349.478638 
	C489.348083,349.891479 488.270142,349.671936 487.992737,350.046021 
	C485.865479,352.914673 483.126801,353.388306 480.901459,350.905823 
	C479.968811,349.865387 480.105042,346.343414 481.118164,345.374176 
	C483.907166,342.705994 486.518463,343.968414 488.269775,347.217834 
	C488.425964,347.507660 489.035645,347.553040 489.713135,347.345032 
z"/>
<path fill="#CFCFCF" opacity="1.000000" stroke="none" 
	d="
M522.345581,352.216797 
	C518.976929,352.618164 516.896423,351.216705 517.184448,348.257202 
	C517.329529,346.766052 519.398438,344.278961 520.497009,344.331726 
	C522.294006,344.418030 524.009094,346.210968 525.758728,347.283966 
	C525.504395,347.781067 525.250061,348.278168 524.995728,348.775269 
	C523.333801,348.987518 521.671814,349.199738 520.009888,349.411957 
	C520.023987,349.663513 520.038086,349.915070 520.052124,350.166626 
	C521.391724,350.166626 522.731323,350.166626 525.201660,350.166626 
	C523.773560,351.295837 523.229553,351.725952 522.345581,352.216797 
z"/>
<path fill="#D8D8D8" opacity="1.000000" stroke="none" 
	d="
M512.346436,346.487213 
	C509.393036,351.580658 515.052734,349.264160 516.685791,352.703339 
	C513.703613,351.792175 511.232056,351.737793 510.172089,350.487091 
	C509.353271,349.520905 509.680176,346.498535 510.646576,345.415283 
	C511.578674,344.370514 513.982971,344.639160 515.740479,344.330811 
	C515.802673,344.852234 515.864868,345.373627 515.927124,345.895050 
	C514.850525,345.999939 513.773926,346.104797 512.346436,346.487213 
z"/>
<path fill="#000101" opacity="1.000000" stroke="none" 
	d="
M324.003296,535.061646 
	C270.266266,562.413086 215.127258,568.510864 158.552658,546.814880 
	C118.234406,531.353088 90.132980,501.976379 71.259178,463.683228 
	C51.174099,422.932526 44.827667,379.492493 47.599110,334.480194 
	C49.680283,300.678802 57.255733,268.236084 73.273819,238.235779 
	C103.461708,181.696854 150.504089,150.713577 214.733002,146.656219 
	C310.864319,140.583557 400.653534,204.854599 425.646729,297.464172 
	C451.077362,391.694702 410.064331,487.816711 324.003296,535.061646 
M402.673065,344.858490 
	C401.638763,343.908081 400.604462,342.957672 399.367279,341.820831 
	C398.575928,343.043274 397.145844,344.248962 397.223816,345.347626 
	C397.371124,347.423065 398.261414,349.498474 399.201202,351.396484 
	C399.315216,351.626770 401.638672,350.763062 403.697449,350.096069 
	C407.213684,353.061523 407.719269,353.094177 411.233490,350.087280 
	C409.309540,350.087280 407.910004,350.087280 406.510498,350.087280 
	C406.503906,349.839111 406.497284,349.590942 406.490692,349.342804 
	C408.221619,349.148315 409.952545,348.953857 411.809570,348.745209 
	C410.750702,341.622772 406.434540,344.795868 402.673065,344.858490 
M386.084930,347.361481 
	C385.036133,344.272461 382.794281,342.776031 380.167084,344.862061 
	C378.951630,345.827148 378.307648,349.157715 379.036591,350.578613 
	C380.492645,353.416718 383.036987,352.470093 385.114410,351.588654 
	C385.115753,351.120514 385.117096,350.652344 385.118469,350.184204 
	C383.796783,350.184204 382.475098,350.184204 379.850616,350.184204 
	C382.773712,349.147369 384.389648,348.574158 386.854065,347.990356 
	C388.005524,353.472504 391.988678,352.253571 395.670105,351.795837 
	C395.670105,349.317230 395.670105,346.925110 395.670105,344.554932 
	C389.806152,344.376953 389.806152,344.376953 386.084930,347.361481 
M62.504856,422.966431 
	C66.098511,431.193787 69.182312,439.691864 73.380295,447.598358 
	C86.606262,472.508240 105.715111,491.373077 131.944992,502.488556 
	C153.234924,511.510620 175.401428,514.181396 198.386612,512.154663 
	C234.161484,509.000153 265.601654,495.565552 291.806793,471.361511 
	C329.578278,436.474304 347.478394,393.020081 344.087921,341.323059 
	C341.712646,305.105103 328.291748,273.212250 303.849915,246.691925 
	C265.748413,205.350372 218.414734,187.270508 162.251770,194.999222 
	C126.768654,199.882141 99.234009,217.955170 79.552353,247.859131 
	C61.965912,274.579681 54.310703,304.512329 52.290665,335.981018 
	C50.411484,365.255371 52.869301,394.176025 62.504856,422.966431 
M366.230774,348.313080 
	C367.724670,347.291809 369.218536,346.270508 370.712402,345.249237 
	C370.621216,344.854004 370.530029,344.458771 370.438812,344.063538 
	C368.597809,344.665222 366.285339,344.804138 365.081116,346.030914 
	C364.274994,346.852112 364.394379,349.933014 365.262726,350.720856 
	C366.477753,351.823303 368.776001,351.731903 370.610809,352.151245 
	C370.642609,351.738708 370.674408,351.326141 370.706207,350.913605 
	C369.293854,350.336456 367.881470,349.759308 366.230774,348.313080 
z"/>
<path fill="#248A2F" opacity="1.000000" stroke="none" 
	d="
M62.354973,422.599365 
	C52.869301,394.176025 50.411484,365.255371 52.290665,335.981018 
	C54.310703,304.512329 61.965912,274.579681 79.552353,247.859131 
	C99.234009,217.955170 126.768654,199.882141 162.251770,194.999222 
	C218.414734,187.270508 265.748413,205.350372 303.849915,246.691925 
	C328.291748,273.212250 341.712646,305.105103 344.087921,341.323059 
	C347.478394,393.020081 329.578278,436.474304 291.806793,471.361511 
	C265.601654,495.565552 234.161484,509.000153 198.386612,512.154663 
	C175.401428,514.181396 153.234924,511.510620 131.944992,502.488556 
	C105.715111,491.373077 86.606262,472.508240 73.380295,447.598358 
	C69.182312,439.691864 66.098511,431.193787 62.354973,422.599365 
M142.019333,502.609222 
	C169.265427,511.311737 196.777771,511.437500 224.191925,504.053162 
	C267.714355,492.329895 300.420471,466.498840 322.214630,426.977020 
	C338.610443,397.244629 344.291962,365.346832 339.667419,331.937439 
	C334.121094,291.868408 315.557465,258.553162 284.287506,232.736664 
	C248.994736,203.598969 208.198273,191.738510 163.106354,198.406281 
	C111.393112,206.053131 80.818291,238.812973 65.051125,286.857269 
	C56.453762,313.054382 54.069046,340.098755 55.790146,367.635986 
	C57.492943,394.880432 63.154861,420.985840 76.028717,445.220398 
	C90.517090,472.494202 111.758705,492.167450 142.019333,502.609222 
z"/>
<path fill="#D9D9D9" opacity="1.000000" stroke="none" 
	d="
M385.970978,348.116058 
	C389.806152,344.376953 389.806152,344.376953 395.670105,344.554932 
	C395.670105,346.925110 395.670105,349.317230 395.670105,351.795837 
	C391.988678,352.253571 388.005524,353.472504 386.425171,348.026489 
	C385.996307,348.062622 385.970978,348.116058 385.970978,348.116058 
z"/>
<path fill="#CECECE" opacity="1.000000" stroke="none" 
	d="
M402.926117,345.579742 
	C406.434540,344.795868 410.750702,341.622772 411.809570,348.745209 
	C409.952545,348.953857 408.221619,349.148315 406.490692,349.342804 
	C406.497284,349.590942 406.503906,349.839111 406.510498,350.087280 
	C407.910004,350.087280 409.309540,350.087280 411.233490,350.087280 
	C407.719269,353.094177 407.213684,353.061523 403.331665,350.290680 
	C402.965881,350.485291 403.014038,350.553101 403.390564,350.113770 
	C403.511902,348.255920 403.256683,346.837402 402.976715,345.456360 
	C402.951965,345.493805 402.926117,345.579742 402.926117,345.579742 
z"/>
<path fill="#CECECE" opacity="1.000000" stroke="none" 
	d="
M386.027954,347.738770 
	C385.970978,348.116058 385.996307,348.062622 386.000977,348.031799 
	C384.389648,348.574158 382.773712,349.147369 379.850616,350.184204 
	C382.475098,350.184204 383.796783,350.184204 385.118469,350.184204 
	C385.117096,350.652344 385.115753,351.120514 385.114410,351.588654 
	C383.036987,352.470093 380.492645,353.416718 379.036591,350.578613 
	C378.307648,349.157715 378.951630,345.827148 380.167084,344.862061 
	C382.794281,342.776031 385.036133,344.272461 386.027954,347.738770 
z"/>
<path fill="#D8D8D8" opacity="1.000000" stroke="none" 
	d="
M366.349945,348.747620 
	C367.881470,349.759308 369.293854,350.336456 370.706207,350.913605 
	C370.674408,351.326141 370.642609,351.738708 370.610809,352.151245 
	C368.776001,351.731903 366.477753,351.823303 365.262726,350.720856 
	C364.394379,349.933014 364.274994,346.852112 365.081116,346.030914 
	C366.285339,344.804138 368.597809,344.665222 370.438812,344.063538 
	C370.530029,344.458771 370.621216,344.854004 370.712402,345.249237 
	C369.218536,346.270508 367.724670,347.291809 366.349945,348.747620 
z"/>
<path fill="#D1D1D1" opacity="1.000000" stroke="none" 
	d="
M403.014038,350.553101 
	C403.014038,350.553101 402.965881,350.485291 402.952026,350.445831 
	C401.638672,350.763062 399.315216,351.626770 399.201202,351.396484 
	C398.261414,349.498474 397.371124,347.423065 397.223816,345.347626 
	C397.145844,344.248962 398.575928,343.043274 399.367279,341.820831 
	C400.604462,342.957672 401.638763,343.908081 402.799591,345.219116 
	C402.926117,345.579742 402.951965,345.493805 402.615906,345.708252 
	C399.726349,347.909821 399.542603,349.521210 403.014038,350.553101 
z"/>
<path fill="#010101" opacity="1.000000" stroke="none" 
	d="
M141.655029,502.455200 
	C111.758705,492.167450 90.517090,472.494202 76.028717,445.220398 
	C63.154861,420.985840 57.492943,394.880432 55.790146,367.635986 
	C54.069046,340.098755 56.453762,313.054382 65.051125,286.857269 
	C80.818291,238.812973 111.393112,206.053131 163.106354,198.406281 
	C208.198273,191.738510 248.994736,203.598969 284.287506,232.736664 
	C315.557465,258.553162 334.121094,291.868408 339.667419,331.937439 
	C344.291962,365.346832 338.610443,397.244629 322.214630,426.977020 
	C300.420471,466.498840 267.714355,492.329895 224.191925,504.053162 
	C196.777771,511.437500 169.265427,511.311737 141.655029,502.455200 
M224.344162,320.133057 
	C232.658295,327.955048 237.741821,337.483246 238.885910,348.862457 
	C240.454086,364.459991 234.939423,377.522400 224.159515,387.719696 
	C231.354874,394.973450 238.246140,401.920685 245.151550,408.882141 
	C269.323883,388.558105 278.745605,347.198425 258.237762,314.097290 
	C237.543610,280.695465 195.123047,268.504730 160.357697,285.636292 
	C124.287544,303.410889 112.733513,343.054932 119.791962,367.704712 
	C121.059074,367.704712 122.382553,367.704834 123.706039,367.704712 
	C146.703033,367.702271 169.700974,367.820404 192.696533,367.637329 
	C201.773087,367.565063 208.092133,361.155151 208.189774,352.737030 
	C208.290726,344.035400 201.958054,337.629181 192.683838,337.320862 
	C187.024109,337.132721 181.353149,337.281494 175.687225,337.280823 
	C167.780838,337.279846 159.874451,337.280579 151.774231,337.280579 
	C160.068207,312.005981 196.515167,296.374115 224.344162,320.133057 
M201.389496,408.173370 
	C203.537186,408.173370 205.684875,408.173370 207.742752,408.173370 
	C210.106735,400.827759 206.195557,392.732422 199.008926,389.639038 
	C191.359741,386.346619 182.671158,389.506073 178.652451,397.041412 
	C174.520386,404.789337 177.045929,414.421997 184.378799,418.882172 
	C191.413193,423.160767 200.141113,421.524323 205.132874,414.805389 
	C203.536224,413.676941 201.945496,412.552673 200.461700,411.503967 
	C192.558319,416.075409 186.821259,414.759857 185.453781,408.173370 
	C190.458908,408.173370 195.440872,408.173370 201.389496,408.173370 
M148.992844,389.181580 
	C148.325073,389.980133 146.917313,391.064209 147.098999,391.535065 
	C150.619247,400.659515 154.236847,409.749725 158.049240,418.756042 
	C159.136154,421.323700 164.198975,421.428833 165.278488,418.895142 
	C169.405563,409.208710 173.283752,399.416260 177.326874,389.486481 
	C169.092575,388.845734 169.108551,388.851288 166.676086,395.848511 
	C165.231293,400.004639 163.726654,404.139923 161.869598,409.348450 
	C159.658569,403.314941 157.605286,398.488953 156.154358,393.488190 
	C155.132507,389.966217 153.318924,388.540619 148.992844,389.181580 
M127.783455,383.593414 
	C127.783455,381.151398 127.783455,378.709381 127.783455,376.275879 
	C124.852264,376.275879 122.476585,376.275879 119.934898,376.275879 
	C119.934898,387.881592 119.909737,399.162811 119.943329,410.443848 
	C119.967690,418.626892 123.477203,421.432526 131.683777,419.794067 
	C131.683777,417.855988 131.683777,415.890503 131.683777,413.925049 
	C131.214203,414.069214 130.744629,414.213409 130.275070,414.357605 
	C129.444626,412.401306 127.966103,410.467377 127.897568,408.484741 
	C127.622299,400.520844 127.783546,392.541840 127.783455,383.593414 
M143.334991,393.889709 
	C143.334991,392.427155 143.334991,390.964600 143.334991,389.491760 
	C140.607956,389.491760 138.367950,389.491760 136.157990,389.491760 
	C136.157990,399.945923 136.157990,410.107361 136.157990,420.277954 
	C138.653442,420.277954 140.755463,420.277954 143.334930,420.277954 
	C143.334930,411.654449 143.334930,403.234283 143.334991,393.889709 
M140.303955,384.102783 
	C141.392944,382.262024 142.876160,380.508728 143.316284,378.524078 
	C143.438797,377.971680 140.456421,376.004242 138.930756,376.040619 
	C137.690536,376.070129 135.738419,377.960419 135.443756,379.316986 
	C134.833740,382.125336 136.516922,383.911957 140.303955,384.102783 
z"/>
<path fill="#000101" opacity="1.000000" stroke="none" 
	d="
M403.390564,350.113770 
	C399.542603,349.521210 399.726349,347.909821 402.640686,345.670776 
	C403.256683,346.837402 403.511902,348.255920 403.390564,350.113770 
z"/>
<path fill="#FCFCFC" opacity="1.000000" stroke="none" 
	d="
M224.069183,319.903687 
	C196.515167,296.374115 160.068207,312.005981 151.774231,337.280579 
	C159.874451,337.280579 167.780838,337.279846 175.687225,337.280823 
	C181.353149,337.281494 187.024109,337.132721 192.683838,337.320862 
	C201.958054,337.629181 208.290726,344.035400 208.189774,352.737030 
	C208.092133,361.155151 201.773087,367.565063 192.696533,367.637329 
	C169.700974,367.820404 146.703033,367.702271 123.706039,367.704712 
	C122.382553,367.704834 121.059074,367.704712 119.791962,367.704712 
	C112.733513,343.054932 124.287544,303.410889 160.357697,285.636292 
	C195.123047,268.504730 237.543610,280.695465 258.237762,314.097290 
	C278.745605,347.198425 269.323883,388.558105 245.151550,408.882141 
	C238.246140,401.920685 231.354874,394.973450 224.159515,387.719696 
	C234.939423,377.522400 240.454086,364.459991 238.885910,348.862457 
	C237.741821,337.483246 232.658295,327.955048 224.069183,319.903687 
z"/>
<path fill="#F7F7F7" opacity="1.000000" stroke="none" 
	d="
M200.906158,408.173370 
	C195.440872,408.173370 190.458908,408.173370 185.453781,408.173370 
	C186.821259,414.759857 192.558319,416.075409 200.461700,411.503967 
	C201.945496,412.552673 203.536224,413.676941 205.132874,414.805389 
	C200.141113,421.524323 191.413193,423.160767 184.378799,418.882172 
	C177.045929,414.421997 174.520386,404.789337 178.652451,397.041412 
	C182.671158,389.506073 191.359741,386.346619 199.008926,389.639038 
	C206.195557,392.732422 210.106735,400.827759 207.742752,408.173370 
	C205.684875,408.173370 203.537186,408.173370 200.906158,408.173370 
M197.016983,396.275055 
	C190.474030,394.019958 186.401062,395.964203 185.222076,401.819702 
	C190.395615,401.819702 195.581924,401.819702 201.800766,401.819702 
	C200.035980,399.667725 198.834641,398.202850 197.016983,396.275055 
z"/>
<path fill="#F4F4F4" opacity="1.000000" stroke="none" 
	d="
M149.390152,389.181458 
	C153.318924,388.540619 155.132507,389.966217 156.154358,393.488190 
	C157.605286,398.488953 159.658569,403.314941 161.869598,409.348450 
	C163.726654,404.139923 165.231293,400.004639 166.676086,395.848511 
	C169.108551,388.851288 169.092575,388.845734 177.326874,389.486481 
	C173.283752,399.416260 169.405563,409.208710 165.278488,418.895142 
	C164.198975,421.428833 159.136154,421.323700 158.049240,418.756042 
	C154.236847,409.749725 150.619247,400.659515 147.098999,391.535065 
	C146.917313,391.064209 148.325073,389.980133 149.390152,389.181458 
z"/>
<path fill="#F4F4F4" opacity="1.000000" stroke="none" 
	d="
M127.783447,384.080933 
	C127.783546,392.541840 127.622299,400.520844 127.897568,408.484741 
	C127.966103,410.467377 129.444626,412.401306 130.275070,414.357605 
	C130.744629,414.213409 131.214203,414.069214 131.683777,413.925049 
	C131.683777,415.890503 131.683777,417.855988 131.683777,419.794067 
	C123.477203,421.432526 119.967690,418.626892 119.943329,410.443848 
	C119.909737,399.162811 119.934898,387.881592 119.934898,376.275879 
	C122.476585,376.275879 124.852264,376.275879 127.783455,376.275879 
	C127.783455,378.709381 127.783455,381.151398 127.783447,384.080933 
z"/>
<path fill="#FDFDFD" opacity="1.000000" stroke="none" 
	d="
M143.334961,394.351929 
	C143.334930,403.234283 143.334930,411.654449 143.334930,420.277954 
	C140.755463,420.277954 138.653442,420.277954 136.157990,420.277954 
	C136.157990,410.107361 136.157990,399.945923 136.157990,389.491760 
	C138.367950,389.491760 140.607956,389.491760 143.334991,389.491760 
	C143.334991,390.964600 143.334991,392.427155 143.334961,394.351929 
z"/>
<path fill="#F2F2F2" opacity="1.000000" stroke="none" 
	d="
M139.910461,384.129700 
	C136.516922,383.911957 134.833740,382.125336 135.443756,379.316986 
	C135.738419,377.960419 137.690536,376.070129 138.930756,376.040619 
	C140.456421,376.004242 143.438797,377.971680 143.316284,378.524078 
	C142.876160,380.508728 141.392944,382.262024 139.910461,384.129700 
z"/>
<path fill="#0B0B0B" opacity="1.000000" stroke="none" 
	d="
M197.325150,396.506531 
	C198.834641,398.202850 200.035980,399.667725 201.800766,401.819702 
	C195.581924,401.819702 190.395615,401.819702 185.222076,401.819702 
	C186.401062,395.964203 190.474030,394.019958 197.325150,396.506531 
z"/>
</svg>